<?xml version="1.0" encoding="UTF-8"?>
<svg id="Camada_1" data-name="Camada 1" xmlns="http://www.w3.org/2000/svg" viewBox="0 0 32 32">
  <defs>
    <style>
      .cls-1 {
        fill: #fff;
      }

      .cls-2 {
        fill: #d82023;
      }
    </style>
  </defs>
  <rect class="cls-2" width="32" height="32"/>
  <g>
    <path class="cls-1" d="M15.92,8.93c.36-.05.69-.02.99.08.3.1.57.25.79.46.22.21.39.46.51.76s.17.63.15.99l-.15,3.32c-.02.35-.1.69-.24,1.02-.15.33-.34.63-.58.9-.24.27-.52.49-.84.68-.31.18-.65.3-1,.34l-4.67.61-1.28-2.44,4.61-.6c.22-.03.4-.13.55-.3.15-.17.23-.36.24-.57l.08-1.76c.01-.21-.05-.38-.19-.51-.14-.13-.32-.19-.53-.16l-4.89.64-.25,5.92-3.26.42.37-8.54,9.6-1.25Z"/>
    <path class="cls-1" d="M26.06,13.49l-.12,2.67-4.25.55-.26,5.95-3.29.43.26-5.95-4.32.56.12-2.67,11.85-1.55Z"/>
  </g>
</svg>
